<svg width="512" height="512" viewBox="0 0 512 512" fill="none" xmlns="http://www.w3.org/2000/svg">
<rect width="512" height="512" rx="16" fill="#ED453A" fill-opacity="0.9"/>
<path d="M452.346 204.972C293.748 214.01 202.086 223.836 54.5496 255.415C52.7864 255.793 51.731 257.665 52.344 259.361C94.0431 374.725 193.222 419.802 280.07 407.692C366.941 395.578 460.049 319.571 455.52 207.822C455.453 206.166 454.001 204.878 452.346 204.972Z" fill="#FAFAFA" stroke="#FAFAFA"/>
<path d="M491.52 211.908C499.318 206.509 504.071 198.116 496.64 191.428C491.281 186.604 482.839 191.392 476.16 196.955C470.38 201.769 465.92 206.972 465.92 209.348C465.92 214.468 484.122 217.029 491.52 211.908Z" fill="#FAFAFA" stroke="#FAFAFA"/>
<path d="M24.1969 268.226C16.3989 262.828 11.6459 254.434 19.0769 247.746C24.4363 242.923 32.8779 247.711 39.5569 253.274C45.3369 258.088 49.7969 263.291 49.7969 265.666C49.7969 270.786 31.5947 273.348 24.1969 268.226Z" fill="#FAFAFA" stroke="#FAFAFA"/>
<path d="M373.72 265.777L368.658 207.564C368.649 207.452 368.733 207.354 368.845 207.347L409.405 204.812C409.514 204.805 409.608 204.887 409.617 204.995L414.671 265.642C414.687 265.834 414.45 265.935 414.322 265.792L394.39 243.368C394.311 243.279 394.171 243.279 394.091 243.368L374.069 265.893C373.953 266.024 373.736 265.952 373.72 265.777Z" fill="#323232" stroke="#323232"/>
<path d="M319.754 102.606C283.914 105.864 260.778 132.753 276.234 148.686C289.911 162.784 305.471 138.938 324.874 135.886C344.315 132.828 378.969 135.496 383.305 135.848C383.478 135.862 383.592 135.679 383.483 135.543C380.517 131.847 353.55 99.5332 319.754 102.606Z" fill="#FAFAFA" stroke="#FAFAFA"/>
<path d="M134.063 141.775C161.227 133.921 185.309 145.908 178.175 161.227C171.862 174.782 154.143 162.755 139.097 166.12C124.161 169.462 99.7474 180.88 96.2965 182.513C96.1369 182.588 95.9781 182.44 96.0379 182.274C97.4449 178.361 108.732 149.1 134.063 141.775Z" fill="#FAFAFA" stroke="#FAFAFA"/>
<rect x="71.6797" y="204.8" width="30.72" height="30.72" rx="15.36" fill="#FAFAFA"/>
<path d="M112.641 332.8L116.728 337.569C124.188 346.271 133.088 353.627 143.04 359.314L145.921 360.96" stroke="#323232" stroke-width="10" stroke-linecap="round"/>
<path d="M168.961 373.759L174.081 376.319L179.201 378.879" stroke="#323232" stroke-width="10" stroke-linecap="round"/>
</svg>
