<svg width="48" height="48" viewBox="0 0 48 48" fill="none" xmlns="http://www.w3.org/2000/svg">
<rect width="48" height="48" rx="24" fill="black"/>
<path d="M20.344 13.5H21.2875V23.7888C21.2875 26.7551 23.4663 29.2124 26.3108 29.6477C26.5702 28.9586 26.7125 28.2093 26.7125 27.4257V17.3514H27.656H30.8403H33.0811H34.1425H35.0713H36C35.0713 17.3514 34.1425 17.3514 34.1425 19.2162V20.5338V21.8514V23.7494C34.1425 27.5597 31.0536 30.6486 27.2432 30.6486C27.1259 30.6486 27.0093 30.6457 26.8934 30.6399C25.7478 32.9323 23.4298 34.5 20.7568 34.5C16.9464 34.5 13.8575 31.3146 13.8575 27.3851V20.4426V15.3649C13.8575 13.5 12 13.5 12 13.5H13.8575H20.344Z" fill="white"/>
</svg>
